<svg width="23" height="21" viewBox="0 0 23 21" fill="none" xmlns="http://www.w3.org/2000/svg">
<path d="M22.5522 0.838147C22.177 0.513566 21.588 0.467368 20.9782 0.716678H20.9775C20.3365 0.978732 2.83643 8.62729 2.1239 8.93993C1.99453 8.98573 0.862624 9.41584 0.979098 10.3745C1.08346 11.2383 1.99297 11.5963 2.10397 11.6373L6.55304 13.1897C6.84814 14.191 7.93627 17.8848 8.17704 18.6738C8.32712 19.1656 8.5718 19.812 9.00056 19.9454C9.37656 20.0932 9.751 19.9582 9.99294 19.7642L12.7133 17.1934L17.1041 20.683L17.2089 20.7467C17.5071 20.8813 17.7924 20.9486 18.0652 20.9486C18.2759 20.9486 18.478 20.908 18.671 20.8276C19.3288 20.5524 19.5923 19.9136 19.6196 19.8411L22.8997 2.46981C23.0998 1.54187 22.8215 1.06993 22.5522 0.838147ZM10.4768 13.8106L8.97594 17.8888L7.47506 12.7911L18.9818 4.12498L10.4768 13.8106Z" fill="#41D1A6"/>
</svg>
