<svg width="30" height="21" viewBox="0 0 30 21" fill="none" xmlns="http://www.w3.org/2000/svg">
<path d="M8.7662 0.557617C9.62527 0.557617 10.4189 0.626863 11.147 0.834599C11.8752 0.97309 12.4725 1.25873 13.0043 1.60495C13.5361 1.95118 13.9288 2.44456 14.1988 3.07642C14.4606 3.70829 14.5997 4.47864 14.5997 5.31824C14.5997 6.29633 14.4033 7.13594 13.9369 7.7678C13.5361 8.39967 12.8815 8.96229 12.0797 9.37776C13.2088 9.72399 14.0679 10.3559 14.5915 11.1955C15.1151 12.0351 15.4505 13.0824 15.4505 14.2769C15.4505 15.255 15.2542 16.0946 14.9187 16.7957C14.5915 17.4968 14.0597 18.1287 13.4624 18.5441C12.8652 18.9683 12.137 19.3145 11.3434 19.5222C10.5498 19.73 9.75617 19.8684 8.96256 19.8684L0.09375 19.8858V0.557617H8.7662ZM8.2344 8.39967C8.96256 8.39967 9.55981 8.19193 10.018 7.83705C10.4761 7.48216 10.6807 6.85895 10.6807 6.0886C10.6807 5.66447 10.6152 5.249 10.4843 4.97202C10.3534 4.69503 10.1571 4.47864 9.88708 4.27091C9.62527 4.13241 9.35528 3.99392 9.02801 3.92468C8.70075 3.85543 8.36531 3.85543 7.97259 3.85543H4.13544V8.40832C4.13544 8.39967 8.2344 8.39967 8.2344 8.39967ZM8.43076 16.6658C8.83166 16.6658 9.22437 16.5966 9.55981 16.5274C9.88708 16.4581 10.2225 16.3196 10.4843 16.1032C10.7461 15.8868 10.9507 15.6791 11.147 15.3329C11.2779 14.9866 11.4088 14.5625 11.4088 14.0691C11.4088 13.091 11.147 12.3899 10.6152 11.8966C10.0834 11.4724 9.35528 11.2647 8.49621 11.2647H4.13544V16.6572H8.43076V16.6658ZM21.2104 16.5966C21.7422 17.1592 22.5358 17.4362 23.5912 17.4362C24.3193 17.4362 24.9821 17.2285 25.5139 16.8736C26.0457 16.4494 26.3729 16.034 26.5038 15.6098H29.7437C29.2119 17.2891 28.4183 18.4835 27.3629 19.2539C26.3075 19.955 25.0475 20.3705 23.5257 20.3705C22.4703 20.3705 21.5376 20.1627 20.6786 19.8079C19.8195 19.4616 19.1568 18.9683 18.5595 18.2671C17.9623 17.6353 17.5041 16.8649 17.2341 15.9561C16.9069 15.0472 16.7678 14.0691 16.7678 12.9439C16.7678 11.8966 16.8987 10.9098 17.2341 10.001C17.5696 9.09212 18.0277 8.32176 18.625 7.62065C19.2222 6.98879 19.9504 6.42617 20.744 6.07994C21.6031 5.73372 22.4621 5.51732 23.5257 5.51732C24.6548 5.51732 25.6448 5.72506 26.5038 6.21843C27.3629 6.71181 28.0256 7.26577 28.5574 8.10537C29.0892 8.87573 29.4819 9.78458 29.7519 10.7627C29.8828 11.7408 29.9483 12.7275 29.8828 13.8441H20.2858C20.2858 14.9866 20.6786 16.034 21.2104 16.5966ZM25.383 9.23927C24.9166 8.74589 24.1884 8.46891 23.3294 8.46891C22.7321 8.46891 22.274 8.6074 21.8731 8.81514C21.4722 9.02287 21.2104 9.30851 20.9485 9.58549C20.6867 9.86248 20.5476 10.2174 20.4822 10.5636C20.4167 10.9098 20.3513 11.1955 20.3513 11.4724H26.3075C26.1766 10.4338 25.8411 9.73264 25.383 9.23927ZM19.5577 1.89059H26.9702V3.77753H19.5577V1.89059Z" fill="#41D1A6"/>
</svg>
