<svg width="24" height="26" viewBox="0 0 24 26" fill="none" xmlns="http://www.w3.org/2000/svg">
<path d="M12.0353 0.848145C5.45951 0.848145 0.109452 6.29959 0.109452 13C0.109452 15.0923 0.639895 17.1496 1.64582 18.965L0.128637 24.4809C0.0788594 24.6621 0.127082 24.8566 0.255674 24.9913C0.354711 25.0954 0.489525 25.1519 0.627969 25.1519C0.669451 25.1519 0.711451 25.1466 0.752413 25.1366L6.40218 23.7106C8.12728 24.6542 10.0702 25.1519 12.0353 25.1519C18.6112 25.1519 23.9612 19.7005 23.9612 13C23.9612 6.29959 18.6112 0.848145 12.0353 0.848145ZM18.0346 17.2881C17.7795 18.0077 16.5558 18.6644 15.9678 18.7526C15.4399 18.8313 14.7721 18.8652 14.0389 18.6306C13.5945 18.4879 13.0242 18.2988 12.2936 17.9812C9.22239 16.6467 7.21677 13.5352 7.06329 13.3297C6.91032 13.1242 5.81314 11.6596 5.81314 10.1438C5.81314 8.62799 6.60388 7.8825 6.88492 7.57395C7.16595 7.2654 7.49729 7.18826 7.70158 7.18826C7.90588 7.18826 8.10966 7.1909 8.28854 7.19935C8.47677 7.20886 8.72928 7.12697 8.97765 7.72822C9.23276 8.34533 9.84513 9.86114 9.92084 10.0159C9.99758 10.1702 10.0484 10.3504 9.94676 10.5559C9.84513 10.7614 9.79432 10.8898 9.64084 11.07C9.48736 11.2502 9.31936 11.4715 9.18143 11.61C9.02795 11.7637 8.86876 11.9301 9.04713 12.2387C9.2255 12.5472 9.83995 13.5558 10.7505 14.3727C11.9197 15.422 12.9065 15.7474 13.2124 15.9017C13.5183 16.056 13.6972 16.0301 13.8756 15.8245C14.0539 15.6185 14.6409 14.9248 14.8447 14.6168C15.0485 14.3087 15.2527 14.3595 15.5338 14.4625C15.8148 14.565 17.3201 15.3099 17.626 15.4642C17.9319 15.6185 18.1362 15.6956 18.213 15.824C18.2897 15.9519 18.2897 16.569 18.0346 17.2881Z" fill="#41D1A6"/>
</svg>
