<svg width="25" height="26" viewBox="0 0 25 26" fill="none" xmlns="http://www.w3.org/2000/svg">
<path d="M21.9436 0.713867H3.17818C1.55967 0.713867 0.246094 2.05234 0.246094 3.70152V22.8225C0.246094 24.4717 1.55967 25.8102 3.17818 25.8102H21.9436C23.5621 25.8102 24.8757 24.4717 24.8757 22.8225V3.70152C24.8757 2.05234 23.5621 0.713867 21.9436 0.713867ZM20.0201 18.0423L17.8328 18.0363C17.8328 18.0363 17.7859 18.0423 17.7096 18.0423C17.5337 18.0423 17.1701 17.9945 16.742 17.6957C15.9738 17.1519 15.2408 15.8015 14.6603 15.8015C14.6192 15.8015 14.584 15.8075 14.5488 15.8194C14.0445 15.9808 13.892 16.4946 13.892 17.1221C13.892 17.3431 13.7396 17.4447 13.3291 17.4447H12.1973C10.9306 17.4447 9.70502 17.4148 8.32694 15.8792C6.29793 13.6146 4.39793 9.5872 4.39793 9.5872C4.39793 9.5872 4.29238 9.35416 4.4038 9.21673C4.50935 9.09125 4.75565 9.0793 4.84948 9.0793C4.87293 9.0793 4.88466 9.0793 4.88466 9.0793H7.23034C7.23034 9.0793 7.44731 9.12112 7.60564 9.24063C7.74052 9.34221 7.81089 9.52744 7.81089 9.52744C7.81089 9.52744 8.20965 10.3162 8.70811 11.2065C9.54669 12.6764 9.99823 13.1664 10.3208 13.1664C10.3735 13.1664 10.4263 13.1545 10.4791 13.1246C10.96 12.8557 10.8192 10.6807 10.8192 10.6807C10.8192 10.6807 10.8251 9.89194 10.5729 9.54537C10.3794 9.27051 10.01 9.19283 9.84576 9.16893C9.71675 9.151 9.92786 8.84028 10.2093 8.69688C10.5729 8.51762 11.1769 8.48176 11.9041 8.48176H12.2559C12.942 8.49372 12.9596 8.56542 13.2294 8.63115C14.0387 8.82833 13.763 9.59915 13.763 11.4455C13.763 12.0371 13.6575 12.8676 14.0738 13.1485C14.1032 13.1664 14.1442 13.1784 14.197 13.1784C14.4667 13.1784 15.0473 12.8258 15.9738 11.2304C16.4899 10.3222 16.8886 9.41989 16.8886 9.41989C16.8886 9.41989 16.9766 9.25855 17.1115 9.1749C17.2405 9.09722 17.2405 9.09722 17.4106 9.09722H17.4281C17.6158 9.09722 19.4806 9.0793 19.8911 9.0793H19.938C20.3309 9.0793 20.6886 9.08527 20.7531 9.33026C20.847 9.70073 20.4658 10.364 19.463 11.7383C17.8093 13.991 17.6217 13.8237 18.9939 15.1263C20.3075 16.3692 20.5772 16.9727 20.6241 17.0504C21.1695 17.9706 20.0201 18.0423 20.0201 18.0423Z" fill="#41D1A6"/>
</svg>
